<mxfile host="app.diagrams.net" agent="Mozilla/5.0 (Windows NT 10.0; Win64; x64) AppleWebKit/537.36 (KHTML, like Gecko) Chrome/122.0.0.0 Safari/537.36" version="24.8.6">
  <diagram name="Страница — 1" id="MFGguQ1gNl8HlDR2jhcr">
    <mxGraphModel dx="1534" dy="849" grid="1" gridSize="10" guides="1" tooltips="1" connect="1" arrows="1" fold="1" page="1" pageScale="1" pageWidth="827" pageHeight="1169" math="0" shadow="0">
      <root>
        <mxCell id="0" />
        <mxCell id="1" parent="0" />
        <mxCell id="7PkjHrMW_M5TBaMhg7_1-2" style="edgeStyle=orthogonalEdgeStyle;rounded=0;orthogonalLoop=1;jettySize=auto;html=1;" edge="1" parent="1" source="7PkjHrMW_M5TBaMhg7_1-1">
          <mxGeometry relative="1" as="geometry">
            <mxPoint x="414" y="90" as="targetPoint" />
          </mxGeometry>
        </mxCell>
        <mxCell id="7PkjHrMW_M5TBaMhg7_1-1" value="начало программы" style="strokeWidth=2;html=1;shape=mxgraph.flowchart.terminator;whiteSpace=wrap;" vertex="1" parent="1">
          <mxGeometry x="364" y="10" width="100" height="60" as="geometry" />
        </mxCell>
        <mxCell id="7PkjHrMW_M5TBaMhg7_1-8" style="edgeStyle=orthogonalEdgeStyle;rounded=0;orthogonalLoop=1;jettySize=auto;html=1;entryX=0.5;entryY=0;entryDx=0;entryDy=0;" edge="1" parent="1" source="7PkjHrMW_M5TBaMhg7_1-3" target="7PkjHrMW_M5TBaMhg7_1-4">
          <mxGeometry relative="1" as="geometry" />
        </mxCell>
        <mxCell id="7PkjHrMW_M5TBaMhg7_1-3" value="size 1000" style="rounded=1;whiteSpace=wrap;html=1;absoluteArcSize=1;arcSize=14;strokeWidth=2;" vertex="1" parent="1">
          <mxGeometry x="371" y="90" width="86" height="40" as="geometry" />
        </mxCell>
        <mxCell id="7PkjHrMW_M5TBaMhg7_1-10" style="edgeStyle=orthogonalEdgeStyle;rounded=0;orthogonalLoop=1;jettySize=auto;html=1;entryX=0.5;entryY=0;entryDx=0;entryDy=0;" edge="1" parent="1" source="7PkjHrMW_M5TBaMhg7_1-4" target="7PkjHrMW_M5TBaMhg7_1-9">
          <mxGeometry relative="1" as="geometry" />
        </mxCell>
        <mxCell id="7PkjHrMW_M5TBaMhg7_1-4" value="вывод &lt;br&gt;&quot;&lt;span style=&quot;background-color: initial;&quot;&gt;введите&amp;nbsp;&lt;/span&gt;&lt;div&gt;&lt;span style=&quot;background-color: initial;&quot;&gt;строку&quot;&lt;/span&gt;&lt;/div&gt;" style="shape=parallelogram;html=1;strokeWidth=2;perimeter=parallelogramPerimeter;whiteSpace=wrap;rounded=1;arcSize=12;size=0.23;" vertex="1" parent="1">
          <mxGeometry x="362" y="150" width="102.75" height="50" as="geometry" />
        </mxCell>
        <mxCell id="7PkjHrMW_M5TBaMhg7_1-9" value="char str[size]" style="rounded=1;whiteSpace=wrap;html=1;absoluteArcSize=1;arcSize=14;strokeWidth=2;" vertex="1" parent="1">
          <mxGeometry x="370.91" y="220" width="84.94" height="30" as="geometry" />
        </mxCell>
        <mxCell id="7PkjHrMW_M5TBaMhg7_1-16" style="edgeStyle=orthogonalEdgeStyle;rounded=0;orthogonalLoop=1;jettySize=auto;html=1;entryX=0.5;entryY=0;entryDx=0;entryDy=0;" edge="1" parent="1" source="7PkjHrMW_M5TBaMhg7_1-11" target="7PkjHrMW_M5TBaMhg7_1-15">
          <mxGeometry relative="1" as="geometry" />
        </mxCell>
        <mxCell id="7PkjHrMW_M5TBaMhg7_1-19" style="edgeStyle=orthogonalEdgeStyle;rounded=0;orthogonalLoop=1;jettySize=auto;html=1;" edge="1" parent="1" source="7PkjHrMW_M5TBaMhg7_1-11">
          <mxGeometry relative="1" as="geometry">
            <mxPoint x="560" y="340" as="targetPoint" />
          </mxGeometry>
        </mxCell>
        <mxCell id="7PkjHrMW_M5TBaMhg7_1-11" value="" style="verticalLabelPosition=bottom;verticalAlign=top;html=1;shape=hexagon;perimeter=hexagonPerimeter2;arcSize=6;size=0.27;" vertex="1" parent="1">
          <mxGeometry x="371.75" y="270" width="85.25" height="50" as="geometry" />
        </mxCell>
        <mxCell id="7PkjHrMW_M5TBaMhg7_1-12" style="edgeStyle=orthogonalEdgeStyle;rounded=0;orthogonalLoop=1;jettySize=auto;html=1;entryX=0.486;entryY=0.05;entryDx=0;entryDy=0;entryPerimeter=0;" edge="1" parent="1" source="7PkjHrMW_M5TBaMhg7_1-9" target="7PkjHrMW_M5TBaMhg7_1-11">
          <mxGeometry relative="1" as="geometry" />
        </mxCell>
        <mxCell id="7PkjHrMW_M5TBaMhg7_1-14" value="if str == null&amp;nbsp;" style="text;strokeColor=none;align=center;fillColor=none;html=1;verticalAlign=middle;whiteSpace=wrap;rounded=0;" vertex="1" parent="1">
          <mxGeometry x="384.37" y="280" width="60" height="30" as="geometry" />
        </mxCell>
        <mxCell id="7PkjHrMW_M5TBaMhg7_1-18" style="edgeStyle=orthogonalEdgeStyle;rounded=0;orthogonalLoop=1;jettySize=auto;html=1;" edge="1" parent="1" source="7PkjHrMW_M5TBaMhg7_1-15" target="7PkjHrMW_M5TBaMhg7_1-17">
          <mxGeometry relative="1" as="geometry" />
        </mxCell>
        <mxCell id="7PkjHrMW_M5TBaMhg7_1-15" value="вывод&lt;br&gt;&quot;ошибка&lt;br&gt;ввода!&quot;" style="shape=parallelogram;html=1;strokeWidth=2;perimeter=parallelogramPerimeter;whiteSpace=wrap;rounded=1;arcSize=12;size=0.23;" vertex="1" parent="1">
          <mxGeometry x="364.75" y="340" width="100" height="60" as="geometry" />
        </mxCell>
        <mxCell id="7PkjHrMW_M5TBaMhg7_1-62" style="edgeStyle=orthogonalEdgeStyle;rounded=0;orthogonalLoop=1;jettySize=auto;html=1;" edge="1" parent="1" source="7PkjHrMW_M5TBaMhg7_1-17" target="7PkjHrMW_M5TBaMhg7_1-61">
          <mxGeometry relative="1" as="geometry" />
        </mxCell>
        <mxCell id="7PkjHrMW_M5TBaMhg7_1-17" value="завершаем программу&lt;div&gt;через return 0&lt;/div&gt;" style="rounded=1;whiteSpace=wrap;html=1;absoluteArcSize=1;arcSize=14;strokeWidth=2;" vertex="1" parent="1">
          <mxGeometry x="367.13" y="420" width="95.25" height="50" as="geometry" />
        </mxCell>
        <mxCell id="7PkjHrMW_M5TBaMhg7_1-22" style="edgeStyle=orthogonalEdgeStyle;rounded=0;orthogonalLoop=1;jettySize=auto;html=1;entryX=0.5;entryY=0;entryDx=0;entryDy=0;" edge="1" parent="1" source="7PkjHrMW_M5TBaMhg7_1-20" target="7PkjHrMW_M5TBaMhg7_1-21">
          <mxGeometry relative="1" as="geometry" />
        </mxCell>
        <mxCell id="7PkjHrMW_M5TBaMhg7_1-20" value="max_len = 0; current_len = 0;" style="rounded=1;whiteSpace=wrap;html=1;absoluteArcSize=1;arcSize=14;strokeWidth=2;" vertex="1" parent="1">
          <mxGeometry x="510" y="340" width="100" height="40" as="geometry" />
        </mxCell>
        <mxCell id="7PkjHrMW_M5TBaMhg7_1-26" style="edgeStyle=orthogonalEdgeStyle;rounded=0;orthogonalLoop=1;jettySize=auto;html=1;" edge="1" parent="1" source="7PkjHrMW_M5TBaMhg7_1-21" target="7PkjHrMW_M5TBaMhg7_1-27">
          <mxGeometry relative="1" as="geometry">
            <mxPoint x="560" y="480" as="targetPoint" />
          </mxGeometry>
        </mxCell>
        <mxCell id="7PkjHrMW_M5TBaMhg7_1-21" value="" style="verticalLabelPosition=bottom;verticalAlign=top;html=1;shape=hexagon;perimeter=hexagonPerimeter2;arcSize=6;size=0.27;" vertex="1" parent="1">
          <mxGeometry x="510" y="400" width="100" height="60" as="geometry" />
        </mxCell>
        <mxCell id="7PkjHrMW_M5TBaMhg7_1-23" value="если null" style="text;strokeColor=none;align=center;fillColor=none;html=1;verticalAlign=middle;whiteSpace=wrap;rounded=0;" vertex="1" parent="1">
          <mxGeometry x="324.37" y="320" width="60" height="30" as="geometry" />
        </mxCell>
        <mxCell id="7PkjHrMW_M5TBaMhg7_1-24" value="если не null и все ок то продолжаем программу" style="text;strokeColor=none;align=center;fillColor=none;html=1;verticalAlign=middle;whiteSpace=wrap;rounded=0;" vertex="1" parent="1">
          <mxGeometry x="480" y="240" width="60" height="30" as="geometry" />
        </mxCell>
        <mxCell id="7PkjHrMW_M5TBaMhg7_1-25" value="int i = 0; str[i] != &#39;\0; i++" style="text;strokeColor=none;align=center;fillColor=none;html=1;verticalAlign=middle;whiteSpace=wrap;rounded=0;" vertex="1" parent="1">
          <mxGeometry x="530" y="415" width="60" height="30" as="geometry" />
        </mxCell>
        <mxCell id="7PkjHrMW_M5TBaMhg7_1-29" style="edgeStyle=orthogonalEdgeStyle;rounded=0;orthogonalLoop=1;jettySize=auto;html=1;entryX=0.5;entryY=0;entryDx=0;entryDy=0;" edge="1" parent="1" source="7PkjHrMW_M5TBaMhg7_1-27" target="7PkjHrMW_M5TBaMhg7_1-28">
          <mxGeometry relative="1" as="geometry" />
        </mxCell>
        <mxCell id="7PkjHrMW_M5TBaMhg7_1-27" value="начало цикла&lt;br&gt;for" style="strokeWidth=2;html=1;shape=mxgraph.flowchart.terminator;whiteSpace=wrap;" vertex="1" parent="1">
          <mxGeometry x="510" y="480" width="100" height="50" as="geometry" />
        </mxCell>
        <mxCell id="7PkjHrMW_M5TBaMhg7_1-32" style="edgeStyle=orthogonalEdgeStyle;rounded=0;orthogonalLoop=1;jettySize=auto;html=1;" edge="1" parent="1" source="7PkjHrMW_M5TBaMhg7_1-28" target="7PkjHrMW_M5TBaMhg7_1-33">
          <mxGeometry relative="1" as="geometry">
            <mxPoint x="480" y="630" as="targetPoint" />
            <Array as="points">
              <mxPoint x="480" y="580" />
            </Array>
          </mxGeometry>
        </mxCell>
        <mxCell id="7PkjHrMW_M5TBaMhg7_1-40" style="edgeStyle=orthogonalEdgeStyle;rounded=0;orthogonalLoop=1;jettySize=auto;html=1;entryX=0.5;entryY=0;entryDx=0;entryDy=0;" edge="1" parent="1" source="7PkjHrMW_M5TBaMhg7_1-28" target="7PkjHrMW_M5TBaMhg7_1-35">
          <mxGeometry relative="1" as="geometry" />
        </mxCell>
        <mxCell id="7PkjHrMW_M5TBaMhg7_1-28" value="" style="verticalLabelPosition=bottom;verticalAlign=top;html=1;shape=hexagon;perimeter=hexagonPerimeter2;arcSize=6;size=0.27;" vertex="1" parent="1">
          <mxGeometry x="510" y="550" width="100" height="60" as="geometry" />
        </mxCell>
        <mxCell id="7PkjHrMW_M5TBaMhg7_1-30" value="if str[i] != &#39; &#39;&lt;div&gt;и str[i] = \n&lt;/div&gt;" style="text;strokeColor=none;align=center;fillColor=none;html=1;verticalAlign=middle;whiteSpace=wrap;rounded=0;" vertex="1" parent="1">
          <mxGeometry x="530" y="565" width="60" height="30" as="geometry" />
        </mxCell>
        <mxCell id="7PkjHrMW_M5TBaMhg7_1-48" style="edgeStyle=orthogonalEdgeStyle;rounded=0;orthogonalLoop=1;jettySize=auto;html=1;" edge="1" parent="1" source="7PkjHrMW_M5TBaMhg7_1-33" target="7PkjHrMW_M5TBaMhg7_1-47">
          <mxGeometry relative="1" as="geometry">
            <Array as="points">
              <mxPoint x="480" y="870" />
            </Array>
          </mxGeometry>
        </mxCell>
        <mxCell id="7PkjHrMW_M5TBaMhg7_1-33" value="current_len++" style="rounded=1;whiteSpace=wrap;html=1;absoluteArcSize=1;arcSize=14;strokeWidth=2;" vertex="1" parent="1">
          <mxGeometry x="440" y="630" width="80" height="30" as="geometry" />
        </mxCell>
        <mxCell id="7PkjHrMW_M5TBaMhg7_1-37" style="edgeStyle=orthogonalEdgeStyle;rounded=0;orthogonalLoop=1;jettySize=auto;html=1;" edge="1" parent="1" source="7PkjHrMW_M5TBaMhg7_1-35" target="7PkjHrMW_M5TBaMhg7_1-38">
          <mxGeometry relative="1" as="geometry">
            <mxPoint x="640" y="710" as="targetPoint" />
          </mxGeometry>
        </mxCell>
        <mxCell id="7PkjHrMW_M5TBaMhg7_1-44" style="edgeStyle=orthogonalEdgeStyle;rounded=0;orthogonalLoop=1;jettySize=auto;html=1;" edge="1" parent="1" source="7PkjHrMW_M5TBaMhg7_1-35" target="7PkjHrMW_M5TBaMhg7_1-43">
          <mxGeometry relative="1" as="geometry">
            <Array as="points">
              <mxPoint x="780" y="660" />
              <mxPoint x="780" y="790" />
            </Array>
          </mxGeometry>
        </mxCell>
        <mxCell id="7PkjHrMW_M5TBaMhg7_1-35" value="" style="verticalLabelPosition=bottom;verticalAlign=top;html=1;shape=hexagon;perimeter=hexagonPerimeter2;arcSize=6;size=0.27;" vertex="1" parent="1">
          <mxGeometry x="640" y="630" width="100" height="60" as="geometry" />
        </mxCell>
        <mxCell id="7PkjHrMW_M5TBaMhg7_1-36" value="if current_len &amp;gt; max_len" style="text;strokeColor=none;align=center;fillColor=none;html=1;verticalAlign=middle;whiteSpace=wrap;rounded=0;" vertex="1" parent="1">
          <mxGeometry x="660" y="645" width="60" height="30" as="geometry" />
        </mxCell>
        <mxCell id="7PkjHrMW_M5TBaMhg7_1-41" style="edgeStyle=orthogonalEdgeStyle;rounded=0;orthogonalLoop=1;jettySize=auto;html=1;" edge="1" parent="1" source="7PkjHrMW_M5TBaMhg7_1-38">
          <mxGeometry relative="1" as="geometry">
            <mxPoint x="690" y="770" as="targetPoint" />
          </mxGeometry>
        </mxCell>
        <mxCell id="7PkjHrMW_M5TBaMhg7_1-38" value="max_len = current_len" style="rounded=1;whiteSpace=wrap;html=1;absoluteArcSize=1;arcSize=14;strokeWidth=2;" vertex="1" parent="1">
          <mxGeometry x="650" y="710" width="80" height="40" as="geometry" />
        </mxCell>
        <mxCell id="7PkjHrMW_M5TBaMhg7_1-49" style="edgeStyle=orthogonalEdgeStyle;rounded=0;orthogonalLoop=1;jettySize=auto;html=1;" edge="1" parent="1" source="7PkjHrMW_M5TBaMhg7_1-43" target="7PkjHrMW_M5TBaMhg7_1-47">
          <mxGeometry relative="1" as="geometry">
            <Array as="points">
              <mxPoint x="690" y="870" />
            </Array>
          </mxGeometry>
        </mxCell>
        <mxCell id="7PkjHrMW_M5TBaMhg7_1-43" value="current_len = 0;" style="rounded=1;whiteSpace=wrap;html=1;absoluteArcSize=1;arcSize=14;strokeWidth=2;" vertex="1" parent="1">
          <mxGeometry x="650" y="770" width="80" height="40" as="geometry" />
        </mxCell>
        <mxCell id="7PkjHrMW_M5TBaMhg7_1-45" value="true" style="text;strokeColor=none;align=center;fillColor=none;html=1;verticalAlign=middle;whiteSpace=wrap;rounded=0;" vertex="1" parent="1">
          <mxGeometry x="610" y="680" width="60" height="30" as="geometry" />
        </mxCell>
        <mxCell id="7PkjHrMW_M5TBaMhg7_1-46" value="false" style="text;strokeColor=none;align=center;fillColor=none;html=1;verticalAlign=middle;whiteSpace=wrap;rounded=0;" vertex="1" parent="1">
          <mxGeometry x="730" y="630" width="60" height="30" as="geometry" />
        </mxCell>
        <mxCell id="7PkjHrMW_M5TBaMhg7_1-53" style="edgeStyle=orthogonalEdgeStyle;rounded=0;orthogonalLoop=1;jettySize=auto;html=1;" edge="1" parent="1" source="7PkjHrMW_M5TBaMhg7_1-47" target="7PkjHrMW_M5TBaMhg7_1-51">
          <mxGeometry relative="1" as="geometry" />
        </mxCell>
        <mxCell id="7PkjHrMW_M5TBaMhg7_1-47" value="конец цикла&lt;div&gt;for&lt;/div&gt;" style="strokeWidth=2;html=1;shape=mxgraph.flowchart.terminator;whiteSpace=wrap;" vertex="1" parent="1">
          <mxGeometry x="510" y="840" width="100" height="60" as="geometry" />
        </mxCell>
        <mxCell id="7PkjHrMW_M5TBaMhg7_1-55" style="edgeStyle=orthogonalEdgeStyle;rounded=0;orthogonalLoop=1;jettySize=auto;html=1;" edge="1" parent="1" source="7PkjHrMW_M5TBaMhg7_1-51">
          <mxGeometry relative="1" as="geometry">
            <mxPoint x="560" y="1000" as="targetPoint" />
          </mxGeometry>
        </mxCell>
        <mxCell id="7PkjHrMW_M5TBaMhg7_1-51" value="" style="verticalLabelPosition=bottom;verticalAlign=top;html=1;shape=hexagon;perimeter=hexagonPerimeter2;arcSize=6;size=0.27;" vertex="1" parent="1">
          <mxGeometry x="510" y="920" width="100" height="60" as="geometry" />
        </mxCell>
        <mxCell id="7PkjHrMW_M5TBaMhg7_1-54" value="if current_len &amp;gt; max_len" style="text;strokeColor=none;align=center;fillColor=none;html=1;verticalAlign=middle;whiteSpace=wrap;rounded=0;" vertex="1" parent="1">
          <mxGeometry x="530" y="935" width="60" height="30" as="geometry" />
        </mxCell>
        <mxCell id="7PkjHrMW_M5TBaMhg7_1-60" value="" style="edgeStyle=orthogonalEdgeStyle;rounded=0;orthogonalLoop=1;jettySize=auto;html=1;" edge="1" parent="1" source="7PkjHrMW_M5TBaMhg7_1-57" target="7PkjHrMW_M5TBaMhg7_1-58">
          <mxGeometry relative="1" as="geometry" />
        </mxCell>
        <mxCell id="7PkjHrMW_M5TBaMhg7_1-57" value="max_len = current_len;" style="rounded=1;whiteSpace=wrap;html=1;absoluteArcSize=1;arcSize=14;strokeWidth=2;" vertex="1" parent="1">
          <mxGeometry x="520" y="1000" width="80" height="40" as="geometry" />
        </mxCell>
        <mxCell id="7PkjHrMW_M5TBaMhg7_1-63" style="edgeStyle=orthogonalEdgeStyle;rounded=0;orthogonalLoop=1;jettySize=auto;html=1;" edge="1" parent="1" source="7PkjHrMW_M5TBaMhg7_1-58" target="7PkjHrMW_M5TBaMhg7_1-61">
          <mxGeometry relative="1" as="geometry">
            <Array as="points">
              <mxPoint x="560" y="1160" />
            </Array>
          </mxGeometry>
        </mxCell>
        <mxCell id="7PkjHrMW_M5TBaMhg7_1-58" value="вывод&amp;nbsp;&lt;div&gt;max_len&lt;/div&gt;" style="shape=parallelogram;html=1;strokeWidth=2;perimeter=parallelogramPerimeter;whiteSpace=wrap;rounded=1;arcSize=12;size=0.23;" vertex="1" parent="1">
          <mxGeometry x="510" y="1060" width="100" height="60" as="geometry" />
        </mxCell>
        <mxCell id="7PkjHrMW_M5TBaMhg7_1-61" value="конец программы" style="strokeWidth=2;html=1;shape=mxgraph.flowchart.terminator;whiteSpace=wrap;" vertex="1" parent="1">
          <mxGeometry x="364.75" y="1130" width="100" height="60" as="geometry" />
        </mxCell>
      </root>
    </mxGraphModel>
  </diagram>
</mxfile>
